<?xml version="1.0" encoding="utf-8"?>
<svg viewBox="0 0 122.88 110.9" style="enable-background:new 0 0 122.88 110.9" xmlns="http://www.w3.org/2000/svg">
  <defs>
    <style type="text/css">.st0{fill-rule:evenodd;clip-rule:evenodd;}</style>
  </defs>
  <g transform="matrix(1, 0, 0, 1, -8.881784197001252e-16, 0)">
    <path class="st0" d="M13.09,35.65h30.58V23.2l34.49,0v12.45l31.47,0L61.39,82.58L13.09,35.65L13.09,35.65z M61.44,97.88l47.51-0.14 l4.54-21.51l9.38,0.31v34.36L0,110.9V76.55l9.39-0.31l4.54,21.51L61.44,97.88L61.44,97.88L61.44,97.88z M43.67,0h34.49v4.62H43.67 V0L43.67,0z M43.67,9.32h34.49v9.44H43.67V9.32L43.67,9.32z" style="fill: rgb(124, 129, 135);"/>
  </g>
</svg>